<?xml version="1.0" encoding="UTF-8"?>
<svg width="200" height="200" viewBox="0 0 200 200" xmlns="http://www.w3.org/2000/svg">
  <!-- Green background rectangles -->
  <rect x="20" y="20" width="80" height="80" fill="#4A7C59" rx="4"/>
  <rect x="100" y="20" width="80" height="80" fill="#4A7C59" rx="4"/>
  <rect x="20" y="100" width="80" height="80" fill="#4A7C59" rx="4"/>
  <rect x="100" y="100" width="80" height="80" fill="#4A7C59" rx="4"/>
  
  <!-- Brown accent rectangles -->
  <rect x="30" y="120" width="20" height="20" fill="#8B4513" rx="2"/>
  <rect x="55" y="120" width="20" height="20" fill="#8B4513" rx="2"/>
  
  <!-- White geometric patterns -->
  <rect x="30" y="30" width="40" height="15" fill="white" rx="2"/>
  <rect x="30" y="50" width="25" height="15" fill="white" rx="2"/>
  
  <rect x="110" y="30" width="60" height="15" fill="white" rx="2"/>
  <rect x="110" y="50" width="60" height="15" fill="white" rx="2"/>
  <rect x="110" y="70" width="40" height="15" fill="white" rx="2"/>
  
  <rect x="30" y="150" width="40" height="15" fill="white" rx="2"/>
  
  <rect x="110" y="130" width="60" height="15" fill="white" rx="2"/>
  <rect x="110" y="150" width="40" height="15" fill="white" rx="2"/>
  <rect x="155" y="150" width="15" height="15" fill="white" rx="2"/>
</svg>
